<?xml version="1.0" encoding="UTF-8" standalone="no"?>
<svg
   fill="#2584ff"
   height="800px"
   width="800px"
   version="1.1"
   viewBox="0 0 363.188 363.188"
   id="svg5"
   sodipodi:docname="bubbles.svg"
   inkscape:export-filename="logo.png"
   inkscape:export-xdpi="96"
   inkscape:export-ydpi="96"
   inkscape:version="1.3 (0e150ed, 2023-07-21)"
   xmlns:inkscape="http://www.inkscape.org/namespaces/inkscape"
   xmlns:sodipodi="http://sodipodi.sourceforge.net/DTD/sodipodi-0.dtd"
   xmlns="http://www.w3.org/2000/svg"
   xmlns:svg="http://www.w3.org/2000/svg">
  <defs
     id="defs5" />
  <sodipodi:namedview
     id="namedview5"
     pagecolor="#ffffff"
     bordercolor="#000000"
     borderopacity="0.25"
     inkscape:showpageshadow="2"
     inkscape:pageopacity="0.0"
     inkscape:pagecheckerboard="0"
     inkscape:deskcolor="#d1d1d1"
     showgrid="false"
     inkscape:zoom="0.30690397"
     inkscape:cx="448.02287"
     inkscape:cy="514.81901"
     inkscape:window-width="1440"
     inkscape:window-height="847"
     inkscape:window-x="0"
     inkscape:window-y="25"
     inkscape:window-maximized="0"
     inkscape:current-layer="svg5">
    <inkscape:grid
       id="grid6"
       units="px"
       originx="0"
       originy="0"
       spacingx="0.453985"
       spacingy="0.453985"
       empcolor="#0099e5"
       empopacity="0.30196078"
       color="#0099e5"
       opacity="0.14901961"
       empspacing="5"
       dotted="false"
       gridanglex="30"
       gridanglez="30"
       visible="false" />
  </sodipodi:namedview>
  <g
     id="g5">
    <path
       d="m111.667,132.311c-61.574,0-111.667,50.093-111.667,111.666s50.093,111.667 111.667,111.667 111.667-50.094 111.667-111.667-50.094-111.666-111.667-111.666zm0,208.333c-53.303,0-96.667-43.364-96.667-96.667 0-53.302 43.364-96.666 96.667-96.666s96.667,43.364 96.667,96.666c-0.001,53.303-43.365,96.667-96.667,96.667z"
       id="path1" />
    <path
       d="m111.667,173.977c-4.142,0-7.5,3.357-7.5,7.5s3.358,7.5 7.5,7.5c30.327,0 55,24.673 55,55 0,4.143 3.358,7.5 7.5,7.5s7.5-3.357 7.5-7.5c0-38.598-31.402-70-70-70z"
       id="path2" />
    <path
       d="m298.333,69.835c-35.761,0-64.855,29.094-64.855,64.855 0,35.761 29.094,64.854 64.855,64.854s64.855-29.094 64.855-64.854c-5.68434e-14-35.761-29.093-64.855-64.855-64.855zm0,114.71c-27.49,0-49.855-22.364-49.855-49.854s22.365-49.855 49.855-49.855 49.855,22.365 49.855,49.855-22.364,49.854-49.855,49.854z"
       id="path3" />
    <path
       d="m302.012,157.925c-14.84,0-26.913-12.073-26.913-26.913 0-4.143-3.358-7.5-7.5-7.5s-7.5,3.357-7.5,7.5c0,23.111 18.802,41.913 41.913,41.913 4.142,0 7.5-3.357 7.5-7.5s-3.358-7.5-7.5-7.5z"
       id="path4" />
    <path
       d="m123.358,96.568c24.544,0 44.512-19.968 44.512-44.512s-19.968-44.512-44.512-44.512-44.512,19.968-44.512,44.512 19.968,44.512 44.512,44.512zm0-74.024c16.273,3.55271e-15 29.512,13.239 29.512,29.512s-13.239,29.512-29.512,29.512-29.512-13.239-29.512-29.512 13.239-29.512 29.512-29.512z"
       id="path5" />
  </g>
  <rect
     style="fill:#2584ff;fill-opacity:1;stroke-width:0.353829"
     id="rect5"
     width="18.542343"
     height="13.487937"
     x="290.24429"
     y="62.658657" />
  <rect
     style="fill:#2584ff;fill-opacity:1;stroke-width:0.332463"
     id="rect6"
     width="27.411131"
     height="14.197828"
     x="285.96307"
     y="52.038033" />
  <circle
     style="fill:#2584ff;fill-opacity:1;stroke-width:0.453985"
     id="path6"
     cx="298.31204"
     cy="135.89682"
     r="10.527599" />
  <rect
     style="fill:#2584ff;fill-opacity:1;stroke-width:0.384707"
     id="rect7"
     width="7.3747678"
     height="38.292233"
     x="312.27631"
     y="-123.12826"
     transform="matrix(0.76292069,0.64649208,-0.64851115,0.76120516,0,0)" />
</svg>
