<?xml version="1.0" encoding="UTF-8" standalone="no"?>
<svg
   fill="#2584ff"
   height="512"
   width="512"
   version="1.1"
   viewBox="0 0 363.188 363.188"
   id="svg5"
   sodipodi:docname="bubbles.svg"
   xmlns:inkscape="http://www.inkscape.org/namespaces/inkscape"
   xmlns:sodipodi="http://sodipodi.sourceforge.net/DTD/sodipodi-0.dtd"
   xmlns="http://www.w3.org/2000/svg"
   xmlns:svg="http://www.w3.org/2000/svg">
  <g
     id="g5">
    <path
       d="M 111.667,132.311 C 50.093,132.311 0,182.404 0,243.977 c 0,61.573 50.093,111.667 111.667,111.667 61.574,0 111.667,-50.094 111.667,-111.667 0,-61.573 -50.094,-111.666 -111.667,-111.666 z m 0,208.333 C 58.364,340.644 15,297.28 15,243.977 c 0,-53.302 43.364,-96.666 96.667,-96.666 53.303,0 96.667,43.364 96.667,96.666 -0.001,53.303 -43.365,96.667 -96.667,96.667 z"
       id="path1" />
    <path
       d="m 111.667,173.977 c -4.142,0 -7.5,3.357 -7.5,7.5 0,4.143 3.358,7.5 7.5,7.5 30.327,0 55,24.673 55,55 0,4.143 3.358,7.5 7.5,7.5 4.142,0 7.5,-3.357 7.5,-7.5 0,-38.598 -31.402,-70 -70,-70 z"
       id="path2" />
    <path
       d="m 298.333,69.835 c -35.761,0 -64.855,29.094 -64.855,64.855 0,35.761 29.094,64.854 64.855,64.854 35.761,0 64.855,-29.094 64.855,-64.854 0,-35.761 -29.093,-64.855 -64.855,-64.855 z m 0,114.71 c -27.49,0 -49.855,-22.364 -49.855,-49.854 0,-27.49 22.365,-49.855 49.855,-49.855 27.49,0 49.855,22.365 49.855,49.855 0,27.49 -22.364,49.854 -49.855,49.854 z"
       id="path3" />
    <path
       d="m 302.012,157.925 c -14.84,0 -26.913,-12.073 -26.913,-26.913 0,-4.143 -3.358,-7.5 -7.5,-7.5 -4.142,0 -7.5,3.357 -7.5,7.5 0,23.111 18.802,41.913 41.913,41.913 4.142,0 7.5,-3.357 7.5,-7.5 0,-4.143 -3.358,-7.5 -7.5,-7.5 z"
       id="path4" />
    <path
       d="m 123.358,96.568 c 24.544,0 44.512,-19.968 44.512,-44.512 0,-24.544 -19.968,-44.512 -44.512,-44.512 -24.544,0 -44.512,19.968 -44.512,44.512 0,24.544 19.968,44.512 44.512,44.512 z m 0,-74.024 c 16.273,0 29.512,13.239 29.512,29.512 0,16.273 -13.239,29.512 -29.512,29.512 -16.273,0 -29.512,-13.239 -29.512,-29.512 0,-16.273 13.239,-29.512 29.512,-29.512 z"
       id="path5" />
  </g>
  <rect
     style="fill:#2584ff;fill-opacity:1;stroke-width:0.353829"
     id="rect5"
     width="18.542343"
     height="13.487937"
     x="290.24429"
     y="62.658657" />
  <rect
     style="fill:#2584ff;fill-opacity:1;stroke-width:0.332463"
     id="rect6"
     width="27.411131"
     height="14.197828"
     x="285.96307"
     y="52.038033" />
  <circle
     style="fill:#2584ff;fill-opacity:1;stroke-width:0.453985"
     id="path6"
     cx="298.31204"
     cy="135.89682"
     r="10.527599" />
  <rect
     style="fill:#2584ff;fill-opacity:1;stroke-width:0.384707"
     id="rect7"
     width="7.3747678"
     height="38.292233"
     x="312.27631"
     y="-123.12826"
     transform="matrix(0.76292069,0.64649208,-0.64851115,0.76120516,0,0)" />
</svg>
